HIERARCHY
ROOT root
{
	OFFSET	0	13.1	24.9
	CHANNELS 6  Xposition Yposition Zposition Xrotation Yrotation Zrotation
	JOINT spine_1
	{
		OFFSET	0	9.99999	0
		CHANNELS 3  Xrotation Yrotation Zrotation
		JOINT spine_2
		{
			OFFSET	0	112	-10
			CHANNELS 3  Xrotation Yrotation Zrotation
			JOINT spine_3
			{
				OFFSET	0	206.5	19.3
				CHANNELS 3  Xrotation Yrotation Zrotation
				JOINT spine_4
				{
					OFFSET	0	110.4	14.6
					CHANNELS 3  Xrotation Yrotation Zrotation
					JOINT neck_1
					{
						OFFSET	0	71.8	-50.3
						CHANNELS 3  Xrotation Yrotation Zrotation
						JOINT neck_2
						{
							OFFSET	0	86.2	-25.8
							CHANNELS 3  Xrotation Yrotation Zrotation
							JOINT head_ee
							{
								OFFSET	0	179.8	-8.7
								CHANNELS 3  Xrotation Yrotation Zrotation
								End Site
								{
									OFFSET	1	0	0
								}
							}
						}
					}
					JOINT left_clavicle
					{
						OFFSET	-43.2	22.4	-70.8
						CHANNELS 3  Xrotation Yrotation Zrotation
						JOINT left_shoulder
						{
							OFFSET	-93.9	-5.79999	48.7
							CHANNELS 3  Xrotation Yrotation Zrotation
							JOINT left_elbow
							{
								OFFSET	-291.4	-30.8	15.2
								CHANNELS 3  Xrotation Yrotation Zrotation
								JOINT left_lowarm_twist
								{
									OFFSET	-110.7	-3.89999	13.6
									CHANNELS 3  Xrotation Yrotation Zrotation
									JOINT left_hand
									{
										OFFSET	-110.7	-3.89999	13.6
										CHANNELS 3  Xrotation Yrotation Zrotation
										JOINT left_ee
										{
											OFFSET	-80.8	-5.10001	12.1
											CHANNELS 3  Xrotation Yrotation Zrotation
											End Site
											{
												OFFSET	1	0	0
											}
										}
									}
								}
							}
						}
					}
					JOINT right_clavicle
					{
						OFFSET	43.2	22.4	-70.8
						CHANNELS 3  Xrotation Yrotation Zrotation
						JOINT right_shoulder
						{
							OFFSET	93.9	-5.79999	48.7
							CHANNELS 3  Xrotation Yrotation Zrotation
							JOINT right_elbow
							{
								OFFSET	291.4	-30.8	15.2
								CHANNELS 3  Xrotation Yrotation Zrotation
								JOINT right_lowarm_twist
								{
									OFFSET	110.7	-3.89999	13.6
									CHANNELS 3  Xrotation Yrotation Zrotation
									JOINT right_hand
									{
										OFFSET	110.7	-3.89999	13.6
										CHANNELS 3  Xrotation Yrotation Zrotation
										JOINT right_ee
										{
											OFFSET	80.8	-5.10001	12.1
											CHANNELS 3  Xrotation Yrotation Zrotation
											End Site
											{
												OFFSET	1	0	0
											}
										}
									}
								}
							}
						}
					}
				}
			}
		}
	}
	JOINT left_hip
	{
		OFFSET	-82.8	-127.5	0.300001
		CHANNELS 3  Xrotation Yrotation Zrotation
		JOINT left_knee
		{
			OFFSET	-28.2	-396.7	2.2
			CHANNELS 3  Xrotation Yrotation Zrotation
			JOINT left_ankle
			{
				OFFSET	-11.7	-411.3	35.4
				CHANNELS 3  Xrotation Yrotation Zrotation
				JOINT left_toes
				{
					OFFSET	0	-60	-88.6
					CHANNELS 3  Xrotation Yrotation Zrotation
					JOINT left_foot_ee
					{
						OFFSET	-22.5	-16.5	-42.2
						CHANNELS 3  Xrotation Yrotation Zrotation
						End Site
						{
							OFFSET	1	0	0
						}
					}
				}
			}
		}
	}
	JOINT right_hip
	{
		OFFSET	82.8	-127.5	0.300001
		CHANNELS 3  Xrotation Yrotation Zrotation
		JOINT right_knee
		{
			OFFSET	28.2	-396.7	2.2
			CHANNELS 3  Xrotation Yrotation Zrotation
			JOINT right_ankle
			{
				OFFSET	11.7	-411.3	35.4
				CHANNELS 3  Xrotation Yrotation Zrotation
				JOINT right_toes
				{
					OFFSET	0	-60	-88.6
					CHANNELS 3  Xrotation Yrotation Zrotation
					JOINT right_foot_ee
					{
						OFFSET	22.5	-16.5	-42.2
						CHANNELS 3  Xrotation Yrotation Zrotation
						End Site
						{
							OFFSET	1	0	0
						}
					}
				}
			}
		}
	}
}
MOTION
Frames: 7
Frame Time: 0.02
914.806181106 624.782 -1767.24820134 -11.7042598613 8.30559321931 0.680879953857 4.76371 0.169958 -0.0594259 4.7637 0.173395 -0.0484906 4.76356 0.178182 -0.0258501 4.7636 0.171863 -0.0536663 -8.85599 4.04573 -1.72849 -8.8595 8.77779 -0.766171 -0.0 0.0 -0.0 5.05819 21.1456 9.77646 -8.20594 -14.6364 55.2479 1.43317 -35.3707 0.457 54.0203 -1.27142 -6.52981 6.58728 -21.6612 36.1327 -0.0 0.0 -0.0 11.1791 14.3689 -22.3557 -31.5937 31.4481 -59.5485 0.199805 5.65273 -0.00986425 7.17783 -0.19704 0.895113 1.48394 23.3737 0.193203 0.0 0.0 0.0 21.5754 28.5591 1.98892 -2.22678 0.0852597 0.331079 28.0553 27.1337 -3.93117 28.2258 -0.0 -0.0 -0.0 0.0 -0.0 27.8798 21.9691 3.29351 -39.5999 0.441511 -5.94221 35.9963 -19.1804 4.62526 11.7255 -0.0 -0.0 0.0 0.0 0.0 
908.437787795 620.798 -1771.20650095 -11.8121134779 8.11193604306 0.463489572377 4.74159 0.220525 -0.00681986 4.74156 0.220512 0.00722662 4.74161 0.217751 0.0355334 4.74168 0.22063 0.000697655 -10.8632 2.86607 -1.76744 -10.8707 6.58256 -0.959613 -0.0 0.0 -0.0 5.01331 21.3924 9.70288 -9.80721 -16.5683 54.4506 1.73774 -40.7192 0.644909 51.4469 -1.07433 -6.26563 5.41222 -25.2526 24.9582 -0.0 0.0 -0.0 11.1125 15.8328 -22.149 -30.5255 28.5226 -60.3095 0.189101 5.35171 -0.00883792 5.09068 -0.151341 0.632428 2.64617 25.8613 -6.16256 0.0 0.0 0.0 20.5554 25.6384 2.91421 -1.45854 0.0573016 0.216493 30.6647 27.5913 -4.25356 24.4822 -0.0 -0.0 -0.0 0.0 -0.0 32.6511 11.3256 2.24498 -20.2939 -0.292029 -3.08432 13.2753 0.955281 1.88584 8.72197 -0.0 -0.0 0.0 0.0 0.0 
900.119387538 613.967 -1778.8980761 -12.2001960406 9.92475463842 0.959358197536 5.02436 0.167865 0.0773783 5.02435 0.162601 0.0879032 5.02461 0.150474 0.107348 5.02463 0.165539 0.0822359 -11.6145 -0.251153 0.542224 -11.614 -0.828167 0.453597 -0.0 0.0 -0.0 3.90605 21.4328 8.09203 -4.57535 -17.0425 57.7199 1.59087 -38.2377 0.551505 50.6526 -1.01593 -6.18235 6.76322 -24.3828 35.4476 -0.0 0.0 -0.0 9.97105 12.1196 -19.7286 -35.4866 36.6037 -57.7253 0.281241 7.93149 -0.0194974 4.57458 -0.138567 0.567739 3.3907 25.1333 -11.3881 0.0 0.0 0.0 20.432 26.767 3.11144 -0.0721404 0.00296362 0.0106739 28.7481 23.5106 -3.92823 40.1156 -0.0 -0.0 -0.0 0.0 -0.0 33.9373 16.3443 2.00092 -24.1534 -0.22326 -3.67244 14.0844 0.862118 1.99372 14.6641 -0.0 -0.0 0.0 0.0 0.0 
899.419821611 616.33 -1787.79527433 -12.4172598223 10.2219303136 1.20213329922 5.21748 0.129387 0.0936719 5.21748 0.123164 0.101715 5.2177 0.110023 0.115804 5.2177 0.126931 0.0969744 -12.3645 -1.07265 2.45464 -12.3544 -3.6024 2.04683 -0.0 0.0 -0.0 3.18997 21.7188 7.06372 -2.76554 -18.6875 57.9568 1.50632 -36.7273 0.50005 46.7626 -0.746914 -5.76334 6.78511 -20.8079 38.3544 -0.0 0.0 -0.0 9.74924 12.2015 -19.2383 -37.2111 38.4424 -59.052 0.308924 8.70077 -0.0235014 3.83265 -0.119183 0.474947 3.85143 27.6541 -13.0172 0.0 0.0 0.0 20.1519 26.9274 3.20166 0.286949 -0.011922 -0.0424206 32.2026 21.0307 -4.26597 39.6815 -0.0 -0.0 -0.0 0.0 -0.0 35.1822 10.2214 2.26185 -26.5208 -0.161527 -4.03048 16.1168 7.00042 2.31108 15.8272 -0.0 -0.0 0.0 0.0 0.0 
898.470746544 619.902 -1808.61467265 -13.9399307622 11.352377683 2.67456507279 5.68518 0.214957 0.104183 5.68516 0.207892 0.11765 5.6856 0.193367 0.140249 5.68564 0.21309 0.10795 -12.2814 -1.09498 -0.578545 -12.2821 -1.70808 -0.867366 -0.0 0.0 -0.0 3.76677 15.0938 7.81768 -5.47404 -18.7654 56.7811 1.66667 -39.5406 0.599099 45.6979 -0.678319 -5.64561 7.60347 -25.005 41.6044 -0.0 0.0 -0.0 9.29286 8.97072 -18.3107 -37.3625 38.1266 -61.6676 0.246494 6.96185 -0.0149938 3.8224 -0.118907 0.473666 4.65913 28.1252 -18.0295 0.0 0.0 0.0 19.8309 24.5138 2.86612 4.2546 -0.19844 -0.622473 34.1172 13.252 -4.34963 39.6258 -0.0 -0.0 -0.0 0.0 -0.0 35.3628 5.83519 1.72626 -25.2499 -0.196509 -3.83858 14.8118 8.52909 2.1519 17.5063 -0.0 -0.0 0.0 0.0 0.0 
901.900152338 618.968 -1816.01203206 -14.3470623887 11.9841136585 2.66719380922 5.72757 0.13119 0.243293 5.7276 0.115443 0.251148 5.72807 0.086708 0.262457 5.728 0.12707 0.24547 -12.049 -2.17082 0.494142 -12.0586 -4.43432 -0.136817 -0.0 0.0 -0.0 3.83498 13.757 7.90261 -5.36734 -21.8319 55.813 1.47083 -36.075 0.47899 41.2798 -0.417499 -5.14425 7.20633 -23.1674 39.9227 -0.0 0.0 -0.0 9.26297 8.97247 -18.2461 -36.9075 37.809 -62.1252 0.241606 6.82512 -0.0144072 3.53 -0.11093 0.437167 5.49679 26.3826 -24.8045 0.0 0.0 0.0 19.2745 22.7751 3.1154 5.46315 -0.263205 -0.796501 34.994 11.6861 -4.42281 38.1887 -0.0 -0.0 -0.0 0.0 -0.0 36.3255 -7.04359 5.15336 -24.1616 -0.223072 -3.67369 13.2402 22.4021 2.14836 16.671 -0.0 -0.0 0.0 0.0 0.0 
899.72643703 620.683 -1827.69753102 -14.7356544116 16.2003184511 3.63786883034 5.71067 -0.048077 0.146083 5.71068 -0.0572752 0.142728 5.71053 -0.0728805 0.135426 5.71051 -0.0505779 0.145236 -13.5759 0.00341369 -0.0173281 -13.5759 0.0172137 -0.015447 -0.0 0.0 -0.0 4.58928 11.5074 9.13893 -6.43953 -24.6886 54.804 1.44127 -35.5233 0.461698 39.5862 -0.327912 -4.94703 8.13222 -25.9063 45.1981 -0.0 0.0 -0.0 8.58863 8.97752 -16.7976 -34.6594 39.1399 -65.3457 0.188804 5.34335 -0.00881028 2.91345 -0.0935016 0.360339 6.47198 23.9566 -33.5477 0.0 0.0 0.0 19.3195 21.0982 4.25306 5.55752 -0.268418 -0.810034 38.4649 12.2045 -4.7581 33.5929 -0.0 -0.0 -0.0 0.0 -0.0 36.0363 -8.658 5.11383 -18.8679 -0.307392 -2.86606 9.02203 25.4695 1.54113 14.788 -0.0 -0.0 0.0 0.0 0.0 
